<?xml version="1.0" encoding="utf-8"?>
<!-- Generator: Adobe Illustrator 28.1.0, SVG Export Plug-In . SVG Version: 6.00 Build 0)  -->
<svg version="1.1" id="Layer_1" xmlns="http://www.w3.org/2000/svg" xmlns:xlink="http://www.w3.org/1999/xlink" x="0px" y="0px"
	 viewBox="0 0 517.5 173.55" style="enable-background:new 0 0 517.5 173.55;" xml:space="preserve">
<style type="text/css">
	.st0{display:none;}
	.st1{display:inline;}
	.st2{fill:#FFFFFF;}
</style>
<g class="st0">
	<g class="st1">
		<path class="st2" d="M252.7,70.99v4.91h-10.23v26.92h36.13V75.9h-10.23v-4.91h33.36v4.91h-10.23v60.79h10.23v4.91h-33.36v-4.91
			h10.23v-28.96h-36.13v28.96h10.23v4.91h-33.36v-4.91h10.23V75.9h-10.23v-4.91H252.7z M369.64,75.9h-10.95v-4.91h27.02v4.91h-10.13
			v39.3c0,17.09-13.21,27.43-28.14,27.43c-13.31,0-28.86-8.5-28.86-27.12V75.9h-10.23v-4.91h33.37v4.91h-10.23v37.67
			c0,13.97,7.16,21.08,19.14,21.08c11.56,0,19.04-7.58,19.04-20.98V75.9z M392.42,75.9v-4.91h33.36v4.91h-10.23v60.79h21.18
			l16.68-19.45l-4.3,24.36h-56.7v-4.91h10.23V75.9H392.42z M456.51,75.9v-4.91h33.36v4.91h-10.23v60.79h21.18l16.68-19.45
			l-4.3,24.36h-56.7v-4.91h10.23V75.9H456.51z M193.73,105.54h-5.16l1.67-2.78h4.35c3.95-11.13,9.51-17.15,15.53-17.15
			c2.88,0,4.15,1.57,4.15,3.04c0,1.72-1.16,2.88-2.53,3.54l-5.97-3.79l-5.01,14.37l11.52,0.05l-1.67,2.78l-10.81-0.05l-5.72,16.54
			c-3.64,10.72-8.5,17.65-14.31,17.65c-2.12,0-3.19-1.42-3.19-3.29c0-1.21,0.66-2.33,1.42-3.09l6.83,2.38L193.73,105.54z
			 M193.25,26.69h-5v-2.24h12.34v2.24h-4.63v17.95c0,7.81-6.03,12.53-12.85,12.53c-6.08,0-13.18-3.88-13.18-12.39V26.69h-4.67v-2.24
			h15.24v2.24h-4.67v17.2c0,6.12,3.27,9.63,8.74,9.63c5.28,0,8.69-3.46,8.69-9.58V26.69z M206.96,56.69v-2.24h4.67V29.96l-4.95-5.52
			h7.76l19.91,22.58V26.69h-4.95v-2.24h12.29v2.24h-4.63v31.5L214.3,32.9v21.55h5v2.24H206.96z M264.37,24.44v2.24h-4.67v27.76h4.67
			v2.24h-15.24v-2.24h4.67V26.69h-4.67v-2.24H264.37z M288.21,48.65l8.93-21.97h-5.61v-2.24h12.01v2.24h-3.69l-13.32,31.74
			l-13.32-31.74h-3.69v-2.24h15.42v2.24h-5.38L288.21,48.65z M329.26,33.79v12.67l-4.02-5.23h-5.94v13.23h10.28l7.67-8.88
			l-1.96,11.12h-26.55v-2.24h4.67V26.69h-4.67v-2.24h23.37l2.52-1.36v10.8l-5.66-7.2h-9.68v12.29h5.94L329.26,33.79z M359.15,56.69
			h-15.24v-2.24h4.67V26.69h-4.67v-2.24h14.3c7.76,0,13.41,2.57,13.41,8.55c0,4.44-3.69,7.1-8.32,8.23l13.6,15.47h-7.57
			l-12.39-14.91h-2.48v12.67h4.67V56.69z M354.47,39.59h2.99c4.49,0,8.04-1.92,8.04-6.5c0-4.53-3.55-6.4-8.04-6.4h-2.99V39.59z
			 M386.42,31.16c0,7.2,16.36,5.52,16.36,15.75c0,6.03-5.42,10.28-12.06,10.28c-3.79,0-7.76-1.45-9.96-3.46v-8.41
			c2.66,5.84,6.4,9.44,10.75,9.44c3.23,0,5.89-1.92,5.89-5.42c0-8.18-15.89-5.7-15.89-15.94c0-5.23,4.39-9.39,9.96-9.39
			c2.71,0,5.23,1.12,6.64,2.34l3.46-2.38v11.03c-2.85-4.63-5.98-8.51-10.19-8.51C388.43,26.48,386.42,28.35,386.42,31.16z
			 M425.3,24.44v2.24h-4.67v27.76h4.67v2.24h-15.24v-2.24h4.67V26.69h-4.67v-2.24H425.3z M430.77,34.16V23.09l2.52,1.36h26.08
			l2.52-1.36v11.08l-5.66-7.48h-6.92v27.76h5.33v2.24h-16.64v-2.24h5.37V26.69h-6.96L430.77,34.16z M473.23,56.69v-2.24h5.37V41.13
			l-10.52-14.44h-3.69v-2.24h16.13v2.24h-5.47l8.32,12.06l8.65-12.06h-5.52v-2.24h12.15v2.24h-3.69L484.5,41.13v13.32h5.37v2.24
			H473.23z M169.44,125.88c-4.57,0-6.87-3.49-6.87-7.94c0-7.59,7.07-16.03,14.96-16.03c4.7,0,6.87,3.54,6.87,7.99
			C184.4,117.49,177.46,125.88,169.44,125.88z M169.26,124.32c5.29-1.92,9.69-10.67,9.69-16.94c0-1.92-0.51-3.29-1.24-3.84
			c-5.24,1.87-9.63,10.62-9.63,16.89C168.08,122.34,168.58,123.71,169.26,124.32z"/>
	</g>
	<g class="st1">
		<g>
			<g>
				<path class="st2" d="M68.37,93.26c-3.12,0-5.36,1.53-5.36,1.53c0.38,2.91,1.44,12.43,1.7,15.49c0.27,3.18,0.73,10.06,0.73,12.92
					c0,0,1.08-0.87,2.92-0.87s2.92,0.87,2.92,0.87c0-2.85,0.46-9.74,0.73-12.92c0.26-3.06,1.33-12.57,1.7-15.49
					C73.73,94.79,71.49,93.26,68.37,93.26z"/>
				<path class="st2" d="M68.37,124.89c-1.33,0-1.65,1.23-3.14,1.23c-0.69,0-1.35,0.06-1.35,0.68c0,0.7,0.54,1.11,1.8,2.22
					c0.95,0.83,1.47,2.39,1.44,3.3c-0.18,0.02-0.45-0.02-0.6-0.06c-0.32-0.09-1.11-0.34-1.61-0.95c-0.75-0.92-1.1-2.41-1.99-2.41
					c-0.72,0-1.01,0.71-1.01,1.39c0,1.35-1.03,1.49-1.03,2.71c0,1.44,1.03,1.58,1.03,3.04c0,0.68,0.11,1.32,0.75,1.32
					c0.71,0,1.16-0.74,2.22-2.04c0.6-0.74,1.66-1.07,2.22-1.07c0,0,0.17,1.36-0.26,2.74c-0.4,1.27-1.83,2.83-4.37,2.85
					c-2.97,0.03-4.36-2.8-4.86-3.55c-0.36,1.29-0.99,4.2-3.19,4.68c-1.18,0.26-2.68,0.04-4.06-1.57c-0.71-0.84-0.81-1.48-0.81-1.48
					c0.22-0.28,0.97-0.45,1.7-0.08c1.26,0.64,1.56,1.31,2.24,1c0.48-0.22,0.39-0.75,0.2-1.28c-0.45-1.25,0.39-1.75-0.01-2.72
					c-0.37-0.91-1.37-0.67-1.82-1.76c-0.22-0.53-0.72-0.97-1.27-0.75c-0.69,0.28-0.5,1.42-0.7,2.27c-0.15,0.65-0.47,0.89-0.78,1.13
					c-0.34,0.26-0.81,0.26-0.81,0.26c-0.34-0.53-0.25-1.81,0.25-2.69c0.42-0.76,0.99-1.46,0.59-2.08c-0.36-0.56-1.12-0.36-1.68-0.2
					c-1.11,0.33-1.65,0.1-2.22-0.01c-0.45-0.09-1.05-0.21-1.48,0.29c0,0,1.13,1.44,1.42,1.88c1.39,2.08,2.29,2.97,4.34,7.8
					c1.51,3.57,1.87,7.15,1.87,7.15c1.41-1.08,4.78-2.01,8.17-2.42c4.35-0.52,6.64-0.53,8.81-0.53c2.16,0,4.46,0.01,8.81,0.53
					c3.4,0.41,6.76,1.34,8.17,2.42c0,0,0.36-3.58,1.87-7.15c2.05-4.83,2.95-5.72,4.34-7.8c0.29-0.44,1.42-1.88,1.42-1.88
					c-0.43-0.5-1.03-0.38-1.48-0.29c-0.58,0.11-1.11,0.35-2.22,0.01c-0.56-0.17-1.31-0.36-1.68,0.2c-0.4,0.62,0.17,1.32,0.59,2.08
					c0.5,0.89,0.59,2.16,0.25,2.69c0,0-0.48,0-0.81-0.26c-0.31-0.24-0.63-0.48-0.78-1.13c-0.2-0.84,0-1.98-0.7-2.27
					c-0.56-0.23-1.06,0.22-1.27,0.75c-0.44,1.09-1.44,0.84-1.82,1.76c-0.4,0.98,0.44,1.47-0.01,2.72c-0.19,0.54-0.29,1.06,0.2,1.28
					c0.68,0.32,0.98-0.36,2.24-1c0.73-0.37,1.48-0.19,1.7,0.08c0,0-0.09,0.64-0.81,1.48c-1.38,1.61-2.88,1.83-4.06,1.57
					c-2.2-0.48-2.83-3.39-3.19-4.68c-0.49,0.76-1.89,3.59-4.86,3.55c-2.54-0.03-3.97-1.58-4.37-2.85c-0.43-1.38-0.26-2.74-0.26-2.74
					c0.55,0,1.62,0.33,2.22,1.07c1.06,1.3,1.5,2.04,2.22,2.04c0.63,0,0.75-0.64,0.75-1.32c0-1.46,1.03-1.6,1.03-3.04
					c0-1.22-1.03-1.36-1.03-2.71c0-0.68-0.29-1.39-1.01-1.39c-0.89,0-1.24,1.49-1.99,2.41c-0.5,0.61-1.29,0.86-1.61,0.95
					c-0.15,0.04-0.42,0.07-0.6,0.06c-0.03-0.91,0.5-2.47,1.44-3.3c1.27-1.11,1.8-1.52,1.8-2.22c0-0.62-0.66-0.68-1.35-0.68
					C70.02,126.12,69.7,124.89,68.37,124.89z"/>
				<path class="st2" d="M68.37,166.05c1.83,0,3.31-1.49,3.31-3.31c0-1.84-1.48-3.32-3.31-3.32c-1.85,0-3.32,1.49-3.32,3.32
					C65.05,164.56,66.53,166.05,68.37,166.05z"/>
				<g>
					<path class="st2" d="M70.15,158.29c0.02-0.71,0.26-7.29,0.88-10.48c-0.93-0.56-2.12-0.7-2.65-0.7c-0.55,0-1.69,0.13-2.64,0.7
						c0.62,3.17,0.85,9.7,0.88,10.47c0.54-0.21,1.14-0.33,1.76-0.33C69,157.94,69.6,158.06,70.15,158.29z"/>
				</g>
				<path class="st2" d="M81.37,76.87c-0.33-4.37,2.47-7.14,2.47-7.14c-2.29,0-4.62,2.84-5.3,4.37c-0.6,1.35-1.35,3.32-1.68,4.8
					c-0.65,2.89-2.35,4.16-2.35,4.16s0.63-1.97,0.39-3.57c-0.15-1.03-0.65-2.64-0.09-4.37c0.56-1.73,2.43-3.66,2.9-6.46
					c0.42-2.48-0.47-5.14-3.04-5.65c0,0,1.7,2.53,0.56,5.1c-0.59,1.31-2.39,3-3.07,3.87c-0.52,0.67-0.87,1.23-1.11,1.78
					c0.25-0.84,0.48-1.78,0.4-3.22c-0.13-2.66-2.75-4.22-2.75-6.78c0-1.94,0.68-3.81,1.12-4.97c-0.61,0.46-4.56,2.98-4.22,7.34
					c0.2,2.57,1.38,3.21,1.51,5.46c0.09,1.75-0.37,3.1-0.86,4.6c0.01-0.17,0.03-0.34,0.03-0.51c0-1.44-0.38-2.39-1.51-3.82
					c-0.69-0.88-2.49-2.56-3.07-3.88c-1.15-2.57,0.56-5.1,0.56-5.1c-2.57,0.51-3.46,3.17-3.04,5.65c0.47,2.81,2.35,4.73,2.91,6.46
					c0.56,1.73,0.05,3.35-0.1,4.38c-0.24,1.6,0.39,3.57,0.39,3.57s-1.7-1.28-2.34-4.16c-0.33-1.48-1.08-3.46-1.68-4.8
					c-0.68-1.53-3.02-4.38-5.31-4.38c0,0,2.79,2.78,2.49,7.15c-0.2,2.63,1.01,5.34,2.9,7.22c1.4,1.39,1.68,2.73,1.55,3.91
					c-0.55,0.13-1.21,0.24-1.67,0.36c-1.23,0.3-2.2,0.69-1.98,2.09c0.22,1.4,0.74,1.75,2.12,1.48c2.98-0.58,6.66-1.05,9.87-1.05
					c3.01,0,6.54,0.5,9.86,1.05c1.41,0.23,1.91-0.08,2.14-1.48c0.22-1.4-0.83-1.83-1.98-2.06c-0.5-0.1-1.01-0.23-1.51-0.34
					c-0.09-1.16,0.22-2.46,1.58-3.81C80.35,82.21,81.55,79.49,81.37,76.87z M73.37,85.42c-0.17,0.9-0.33,1.52-0.58,2.11
					c-1.21-0.15-3.12-0.26-4.42-0.26c-1.52,0-3.3,0.04-4.41,0.17c0.33-0.64,0.67-1.15,0.81-1.9c0.14-0.76-0.17-1.06-0.2-2.09
					c-0.02-0.9,0.74-2.03,0.92-3.12c0.23-1.43-0.19-2.47-0.3-2.87c0.43-0.02,1.62,1.17,1.63,3.36c0.01,1.74,0.32,2.83,0.71,3.64
					c0.54,1.1,1.23,1.67,1.57,2.61c0.13-0.1,0.32-0.36,0.51-0.59c0.68-0.85,1.06-2.01,1.12-3.54c0.12-2.73-0.92-3.34-0.79-5.45
					c0.06-0.98,0.51-1.77,0.89-2.18c-0.04,0.28-0.07,0.58-0.07,0.9c0,1.15,0.21,2.25,1.23,3.72C73.26,81.76,73.61,83.74,73.37,85.42
					z"/>
				<g>
					<path class="st2" d="M64.92,153.49c-0.08-1.12-0.18-2.3-0.3-3.36c-2.39-0.28-4.28-0.76-5.99-1.38
						c-2.67,0.43-4.6,1.11-5.33,1.57C56.05,151.94,60.07,153.12,64.92,153.49z"/>
				</g>
				<g>
					<path class="st2" d="M71.83,153.49c0.08-1.12,0.18-2.3,0.3-3.36c2.39-0.28,4.28-0.76,5.99-1.38c2.67,0.43,4.6,1.11,5.33,1.57
						C80.69,151.94,76.67,153.12,71.83,153.49z"/>
				</g>
			</g>
			<g>
				<path class="st2" d="M31.42,88.81c1.54,0,1.85-1.16,1.48-2.58c-0.43-1.71-1.11-2.95-1.48-3.79c-0.37,0.84-1.05,2.08-1.48,3.79
					C29.58,87.65,29.88,88.81,31.42,88.81z"/>
				<path class="st2" d="M16.72,99.49c0.48-1.46-0.53-2.11-2-2.21c-1.76-0.12-3.15,0.15-4.07,0.24c0.69,0.61,1.65,1.65,3.15,2.58
					C15.04,100.89,16.24,100.96,16.72,99.49z"/>
				<path class="st2" d="M22.33,116.78c-1.24-0.9-2.17-0.15-2.72,1.22c-0.66,1.64-0.83,3.04-1.03,3.94c0.79-0.46,2.08-1.06,3.43-2.2
					C23.15,118.8,23.58,117.68,22.33,116.78z"/>
				<path class="st2" d="M40.51,116.78c-1.24,0.9-0.81,2.02,0.32,2.96c1.35,1.13,2.64,1.73,3.43,2.2c-0.19-0.9-0.37-2.3-1.03-3.94
					C42.68,116.63,41.75,115.88,40.51,116.78z"/>
				<path class="st2" d="M48.13,97.28c-1.47,0.1-2.48,0.75-2,2.21c0.48,1.46,1.67,1.4,2.92,0.61c1.49-0.94,2.46-1.97,3.15-2.58
					C51.28,97.43,49.89,97.16,48.13,97.28z"/>
				<path class="st2" d="M43.72,101.31c-1.68,0.31-2.12,2.14-3.74,2.56c-1.24,0.32-2.48-0.43-2.8-1.47
					c-0.35-1.03,0.21-2.36,1.4-2.84c1.56-0.61,2.99,0.6,4.53-0.13c0.5-0.24,1.27-0.82,1.38-2.19c0.19-2.37-1.78-4.59-3.67-5.91
					c-1.84-1.39-4.57-2.58-6.75-1.67c-1.27,0.53-1.59,1.45-1.66,1.99c-0.22,1.7,1.38,2.68,1.27,4.35c-0.08,1.28-1.18,2.22-2.26,2.21
					c-1.09,0.01-2.18-0.93-2.26-2.21c-0.1-1.67,1.5-2.65,1.27-4.35c-0.07-0.55-0.39-1.46-1.66-1.99c-2.19-0.92-4.91,0.27-6.75,1.67
					c-1.89,1.32-3.87,3.54-3.67,5.91c0.11,1.37,0.89,1.96,1.38,2.19c1.54,0.74,2.97-0.48,4.53,0.13c1.19,0.47,1.75,1.8,1.4,2.84
					c-0.33,1.04-1.56,1.79-2.8,1.47c-1.62-0.42-2.06-2.24-3.74-2.56c-0.54-0.1-1.51-0.08-2.41,0.96c-1.55,1.8-1.26,4.76-0.5,6.94
					c0.67,2.21,2.18,4.77,4.49,5.32c1.34,0.32,2.13-0.24,2.51-0.64c1.18-1.24,0.46-2.98,1.53-4.27c0.82-0.99,2.26-1.11,3.13-0.46
					c0.89,0.63,1.22,2.04,0.53,3.12c-0.9,1.41-2.77,1.27-3.59,2.77c-0.26,0.48-0.55,1.41,0.17,2.59c1.23,2.03,4.14,2.67,6.44,2.62
					c2.31,0.04,5.21-0.59,6.44-2.62c0.71-1.18,0.43-2.1,0.17-2.59c-0.82-1.5-2.69-1.36-3.59-2.77c-0.69-1.08-0.35-2.49,0.53-3.12
					c0.87-0.65,2.31-0.53,3.13,0.46c1.07,1.29,0.35,3.03,1.53,4.27c0.38,0.4,1.17,0.96,2.51,0.64c2.31-0.55,3.81-3.11,4.49-5.32
					c0.75-2.18,1.04-5.14-0.5-6.94C45.23,101.23,44.26,101.21,43.72,101.31z M34.06,105.78c-0.43,0.74-1.16,1.29-2.02,1.47
					c-0.07,1.63-0.62,3.58-0.62,3.58s-0.56-1.95-0.62-3.58c-0.87-0.18-1.6-0.73-2.02-1.47c-1.57,0.44-3.6,0.51-3.6,0.51
					s1.68-1.13,3.21-1.7c-0.01-0.11-0.02-0.22-0.02-0.33c0-0.79,0.3-1.51,0.79-2.05c-0.91-1.36-1.6-3.26-1.6-3.26
					s1.59,1.25,2.61,2.53c0.38-0.17,0.8-0.27,1.25-0.27s0.87,0.1,1.25,0.27c1.01-1.28,2.61-2.53,2.61-2.53s-0.69,1.9-1.6,3.26
					c0.49,0.54,0.79,1.26,0.79,2.05c0,0.11-0.01,0.22-0.02,0.33c1.53,0.57,3.21,1.7,3.21,1.7S35.64,106.23,34.06,105.78z"/>
			</g>
			<g>
				<path class="st2" d="M100.42,112.3c-0.77,0.04-1.06,0.49-1.1,0.52c-0.01,0.58-0.32,1.55-0.82,1.85
					c-0.31,0.19-0.62,0.26-0.92,0.24c-1.04-0.05-1.67-0.71-1.85-1.34c-0.8,0.43-0.89,1.55-0.54,2.39c0.66,1.59,2.6,1.71,3.71,1.42
					c1.18-0.31,2.15-1.42,2.48-2.82c0.15-0.63,0.27-1.1,0.34-1.82C101.58,112.69,101.24,112.26,100.42,112.3z"/>
				<path class="st2" d="M107.63,112.76c0.07,0.73,0.19,1.19,0.34,1.82c0.32,1.4,1.3,2.51,2.48,2.82c1.11,0.29,3.05,0.17,3.71-1.42
					c0.35-0.84,0.26-1.96-0.54-2.39c-0.18,0.63-0.81,1.29-1.85,1.34c-0.3,0.02-0.61-0.05-0.92-0.24c-0.49-0.3-0.81-1.27-0.82-1.85
					c-0.04-0.03-0.32-0.48-1.1-0.52C108.11,112.26,107.77,112.69,107.63,112.76z"/>
				<path class="st2" d="M104.68,112.21c-0.59,0-1.22,0.39-1.37,0.49c-0.1,0.73-0.21,1.75-0.44,2.46c-0.33,1.04-0.96,2.58-0.96,3.57
					c0,2.22,2.67,4.64,2.67,5.46c0.01,0.01,0.05,0.03,0.1,0.03s0.08-0.03,0.1-0.03c0-0.82,2.67-3.24,2.67-5.46
					c0-0.99-0.63-2.53-0.96-3.57c-0.23-0.71-0.34-1.73-0.44-2.46C105.89,112.6,105.26,112.21,104.68,112.21"/>
				<path class="st2" d="M104.68,110.25c2.19,0,4.29,0.35,6.46,0.7c0.94,0.15,1.28-0.05,1.44-0.99c0.15-0.94-0.53-1.18-1.34-1.41
					c-0.2-0.06-0.44-0.11-0.7-0.16c0.39-1.11,0.89-3.19,2.5-4.59c0.42-0.37,1.73-1.21,3.18-0.8c0.49,0.14,1.5,0.9,0.7,2.28
					c-0.43,0.74-1.03,1.63-1.06,2.36c-0.02,0.41,0.22,0.9,0.68,1.02c0.14-0.54,0.65-1.36,2.64-2.21c2.36-1.01,3.36-2.65,3.36-4.92
					c0-2.23-1.92-4.89-5.68-4.89c-1.46,0-3.77,0.49-5.52,2.48c-0.59,0.67-1.1,1.52-1.5,2.29c-0.78,1.54-1.63,5.01-1.89,6.6
					c-0.69-0.08-1.3-0.12-1.68-0.13c0.1-1.25,0.39-3.72,1-6.01c0.41-1.53,0.84-2.91,1.41-5.59c0.16-0.78,0.27-1.64,0.27-3.11
					c0-5.24-4.16-8.57-4.16-10.21c-0.01-0.01-0.06-0.04-0.11-0.04s-0.1,0.03-0.11,0.04c0,1.64-4.16,4.98-4.16,10.21
					c0,1.48,0.11,2.33,0.27,3.11c0.57,2.68,1,4.06,1.41,5.59c0.61,2.29,0.9,4.76,1,6.01c-0.37,0.01-0.99,0.06-1.68,0.13
					c-0.26-1.59-1.11-5.06-1.89-6.6c-0.4-0.78-0.9-1.62-1.5-2.29c-1.75-1.99-4.06-2.48-5.52-2.48c-3.77,0-5.68,2.66-5.68,4.89
					c0,2.28,1,3.92,3.36,4.92c1.99,0.85,2.5,1.68,2.64,2.21c0.46-0.12,0.7-0.61,0.68-1.02c-0.03-0.73-0.63-1.62-1.06-2.36
					c-0.8-1.38,0.22-2.15,0.7-2.28c1.45-0.41,2.75,0.43,3.18,0.8c1.6,1.41,2.11,3.48,2.5,4.59c-0.27,0.05-0.51,0.11-0.7,0.16
					c-0.81,0.23-1.48,0.47-1.34,1.41c0.16,0.94,0.5,1.14,1.44,0.99C100.39,110.61,102.48,110.25,104.68,110.25"/>
			</g>
		</g>
		<g>
			<path class="st2" d="M45.96,43.35c2.1,1.66,4.57,2.27,6.17,2.56c1.9,0.34,3.72,0.28,4.09,0.27c0.36-0.01,1.05-0.04,1.05-0.04
				s-0.24,0.27-0.53,0.47c-1.28,0.84-3.22,0.85-5.09,0.5c-0.32-0.06-1.99-0.45-2.43-0.75c0,0,1.23,1.19,3.07,1.93
				c1.77,0.71,3.32,0.94,4.63,0.94c3.23,0,5.52-1.8,5.84-2.37c-0.04,0.04-1.07-0.2-1.86-0.46c-1.06-0.36-1.49-0.73-1.62-1.1
				c0,0,0.62,0.13,1.39,0.27c2.66,0.49,8.33,0.76,10.51,0.7c4.3-0.12,9.48-0.19,13.09-3.44c2.43-2.18,2.37-5.35,2.32-8.02
				c-0.03-1.52-0.05-2.84,0.35-3.72c0.6-1.32,2.32-1.65,3.7-1.87c0.58-0.09,1.25-0.22,1.64-0.46c0.33-0.2,0.42-0.52,0.47-0.91
				c0.03-0.29,0.01-0.77-0.28-1.35c-0.55-1.09-1.65-1.72-3.88-1.72c-1.7,0-3.33,0.68-4.34,1.56c-1.76,1.53-2.83,3.27-3.4,6.3
				c-0.09,0.46-0.14,0.91-0.18,1.42c-0.06,0.75-0.35,2.23-1.32,2.92c-0.41,0.29-0.73,0.36-0.73,0.36s0.08-0.25,0.12-0.38
				c2.19-7.18-5.15-10.85-11.08-14.11c-1.47-0.8-3.59-2.08-4.43-2.66c-5.37-3.72-8.65-7.63-9.82-11.8c-0.65,0.52-0.72,2.36-0.7,3.29
				c0.09,3.15,1.66,5.89,3.6,8.21c3.49,4.18,10.7,8.12,15.27,10.29c0.39,0.19,1.07,0.5,1.07,0.5c0.01,0-0.64,0.48-2.79-0.13
				c-1.42-0.41-3.51-1.27-6.49-3.1c-6.72-4.12-11.49-8.63-12.48-13.98c-0.41,0.4-0.74,1.59-0.79,2.23c-0.34,3.67,1.53,6.46,2.55,7.8
				c3.7,4.85,10.6,8.66,15.36,10.95c0,0-0.84,0.45-3.36-0.39c-1.51-0.5-3.64-1.55-6.55-3.35c-2.96-1.83-6.16-4.54-8.19-8.01
				c-0.56,0.9-0.63,2.02-0.31,3.71c0.69,3.62,3.99,6.19,4.73,6.79c2.16,1.78,5.08,3.21,7.73,4.16c2.53,0.9,5.33,1.48,8.45,1.29
				c0.35-0.02,0.72-0.08,0.72-0.08s-0.29,0.3-0.59,0.51c-3.31,2.43-9.21,4.18-15.38,4.41c-3.05,0.11-6.06-0.13-8.54-0.74
				c-0.53-0.13-1.39-0.34-1.87-0.51C45.07,42.52,45.57,43.05,45.96,43.35z M87.27,26.77c0.09-0.03,0.59-0.2,0.91-0.3
				c0.7-0.21,1.67-0.38,2.28-0.1c0.21,0.1,0.32,0.31,0.29,0.54c-0.02,0.18-0.13,0.37-0.34,0.45c-0.63,0.25-1.53-0.01-2.27-0.23
				c-0.28-0.08-0.71-0.2-0.87-0.23C87.2,26.88,87.19,26.8,87.27,26.77z"/>
			<path class="st2" d="M0,0v92.46c0,44.56,35.11,73.77,68.37,81.09c33.26-7.32,68.37-36.53,68.37-81.09V0H0z M42.26,39.79
				c3.58,1.6,6.92,2.25,10.64,2.36c3.72,0.1,7.88-0.55,11.13-1.97c-0.27-0.1-1.55-0.53-2.19-0.78c-1.76-0.68-3.53-1.44-5.45-2.6
				c-2.93-1.76-5.69-4.27-7-6.41c-0.88-1.44-1.52-2.68-1.91-4.37c-0.68-2.93,0.24-4.89,1.51-5.43c-0.75-1.65-0.94-4.72-0.71-6.19
				c0.28-1.85,1.36-3.27,2.34-3.68C50.53,9.64,51,7.95,51.87,7.08c0.48-0.47,1.05-0.66,1.66-0.61c0.41,0.05,0.68,0.28,0.83,0.69
				c0.36,0.93,0.76,1.84,1.18,2.69c2.12,4.27,6.36,7.56,9.61,9.4c0.65-1.35,1.32-2.5,2.54-3.79c0.84-0.89,2.09-1.73,3.24-2.17
				c1.14-0.43,1.81-0.64,3.11-0.73c0.03,0,0.9,0,0.93,0c0.26-0.17,1.23-0.83,2.07-1.24c0.61-0.3,1.87-0.76,3.04-0.78
				c0.8-0.02,1.56,0.17,2.02,0.77l0.14,0.17l-0.17,0.14c-2.44,1.98-3.86,5.33-3.8,8.94c0.04,2.14,0.52,4.21,1.19,6.24
				c0.22,0.65,0.8,2.63,0.8,2.63c0.05-0.19,0.42-1.22,1.09-2.25c0.84-1.3,2.26-2.34,3.23-2.84c1.17-0.6,2.35-0.91,4.02-0.91
				c2.92,0,4.87,1.39,5.76,3.4c0.42,0.28,0.91,0.44,1.4,0.59c0.75,0.24,1.65,0.56,2.13,1.31c0.03,0.05,0.12,0.21,0.12,0.21
				s-0.09,0.06-0.19,0.12c-0.94,0.54-2.29,0.78-4.05,1.01c-0.19,0.02-0.43,0.05-0.71,0.08c-1.19,0.12-3.21,0.31-4.04,0.96
				c-0.68,0.53-0.87,1.25-0.78,2.58c0.11,1.83,0.44,4.27,0.13,5.81c-0.82,4.11-3.86,6.59-8.17,7.64c-4.42,1.07-9.45,0.7-14.25,0.2
				c0,0-2.09,1.56-3.36,2.24c-1.74,0.92-3.57,1.39-5.74,1.39c-5.92,0-10.66-4.9-12.36-6.58c-0.76-0.76-2.01-2.23-2.59-3.57
				c-0.14-0.33-0.44-1.17-0.4-1.42L42.26,39.79z M133.69,92.46c0,19.73-7.22,37.85-20.89,52.42
				c-11.69,12.46-27.85,21.74-44.43,25.54c-16.58-3.8-32.74-13.08-44.43-25.54C10.28,130.32,3.05,112.19,3.05,92.46l0-31.11
				c9.96-0.88,12.74-8.92,20.57-8.92c8.29,0,10.91,9,22.38,9c11.46,0,14.09-9,22.38-9c8.29,0,10.91,9,22.38,9s14.09-9,22.38-9
				c7.83,0,10.61,8.04,20.57,8.92L133.69,92.46z"/>
			<path class="st2" d="M77.14,26.52c0,0-0.58-1.51-0.71-2.1c-0.2-0.91-0.35-1.82-0.41-2.75c-0.22-3.32,0.69-6.11,2.06-8.11
				c0.34-0.49,1-1.42,1.63-1.93c-2.18,0.55-4.48,2.09-5.63,3.77c-0.65,0.95-1.11,2.09-1.29,3.07c-0.33,1.78-0.05,2.99-0.01,3.02
				c-0.6-0.24-0.83-0.57-1.05-0.86c-0.49-0.64-0.55-1.34-0.48-2.4c0.05-0.72,0.35-1.72,0.85-2.66c0.52-0.97,1.28-1.65,1.28-1.65
				c-1.38,0.21-3.08,0.98-4.39,2.55c-0.29,0.35-0.75,0.9-1.23,2.14c-0.18,0.47-0.42,1.31-0.42,1.84l1.04,0.61
				C71.13,22.57,74.46,24.44,77.14,26.52z"/>
		</g>
	</g>
</g>
<g>
	<g>
		<path class="st2" d="M252.7,70.99v4.91h-10.23v26.92h36.13V75.9h-10.23v-4.91h33.36v4.91h-10.23v60.79h10.23v4.91h-33.36v-4.91
			h10.23v-28.96h-36.13v28.96h10.23v4.91h-33.36v-4.91h10.23V75.9h-10.23v-4.91H252.7z M369.64,75.9h-10.95v-4.91h27.02v4.91h-10.13
			v39.3c0,17.09-13.21,27.43-28.14,27.43c-13.31,0-28.86-8.5-28.86-27.12V75.9h-10.23v-4.91h33.37v4.91h-10.23v37.67
			c0,13.97,7.16,21.08,19.14,21.08c11.56,0,19.04-7.58,19.04-20.98V75.9z M392.42,75.9v-4.91h33.36v4.91h-10.23v60.79h21.18
			l16.68-19.45l-4.3,24.36h-56.7v-4.91h10.23V75.9H392.42z M456.51,75.9v-4.91h33.36v4.91h-10.23v60.79h21.18l16.68-19.45
			l-4.3,24.36h-56.7v-4.91h10.23V75.9H456.51z M193.73,105.54h-5.16l1.67-2.78h4.35c3.95-11.13,9.51-17.15,15.53-17.15
			c2.88,0,4.15,1.57,4.15,3.04c0,1.72-1.16,2.88-2.53,3.54l-5.97-3.79l-5.01,14.37l11.52,0.05l-1.67,2.78l-10.81-0.05l-5.72,16.54
			c-3.64,10.72-8.5,17.65-14.31,17.65c-2.12,0-3.19-1.42-3.19-3.29c0-1.21,0.66-2.33,1.42-3.09l6.83,2.38L193.73,105.54z
			 M193.25,26.69h-5v-2.24h12.34v2.24h-4.63v17.95c0,7.81-6.03,12.53-12.85,12.53c-6.08,0-13.18-3.88-13.18-12.39V26.69h-4.67v-2.24
			h15.24v2.24h-4.67v17.2c0,6.12,3.27,9.63,8.74,9.63c5.28,0,8.69-3.46,8.69-9.58V26.69z M206.96,56.69v-2.24h4.67V29.96l-4.95-5.52
			h7.76l19.91,22.58V26.69h-4.95v-2.24h12.29v2.24h-4.63v31.5L214.3,32.9v21.55h5v2.24H206.96z M264.37,24.44v2.24h-4.67v27.76h4.67
			v2.24h-15.24v-2.24h4.67V26.69h-4.67v-2.24H264.37z M288.21,48.65l8.93-21.97h-5.61v-2.24h12.01v2.24h-3.69l-13.32,31.74
			l-13.32-31.74h-3.69v-2.24h15.42v2.24h-5.38L288.21,48.65z M329.26,33.79v12.67l-4.02-5.23h-5.94v13.23h10.28l7.67-8.88
			l-1.96,11.12h-26.55v-2.24h4.67V26.69h-4.67v-2.24h23.37l2.52-1.36v10.8l-5.66-7.2h-9.68v12.29h5.94L329.26,33.79z M359.15,56.69
			h-15.24v-2.24h4.67V26.69h-4.67v-2.24h14.3c7.76,0,13.41,2.57,13.41,8.55c0,4.44-3.69,7.1-8.32,8.23l13.6,15.47h-7.57
			l-12.39-14.91h-2.48v12.67h4.67V56.69z M354.47,39.59h2.99c4.49,0,8.04-1.92,8.04-6.5c0-4.53-3.55-6.4-8.04-6.4h-2.99V39.59z
			 M386.42,31.16c0,7.2,16.36,5.52,16.36,15.75c0,6.03-5.42,10.28-12.06,10.28c-3.79,0-7.76-1.45-9.96-3.46v-8.41
			c2.66,5.84,6.4,9.44,10.75,9.44c3.23,0,5.89-1.92,5.89-5.42c0-8.18-15.89-5.7-15.89-15.94c0-5.23,4.39-9.39,9.96-9.39
			c2.71,0,5.23,1.12,6.64,2.34l3.46-2.38v11.03c-2.85-4.63-5.98-8.51-10.19-8.51C388.43,26.48,386.42,28.35,386.42,31.16z
			 M425.3,24.44v2.24h-4.67v27.76h4.67v2.24h-15.24v-2.24h4.67V26.69h-4.67v-2.24H425.3z M430.77,34.16V23.09l2.52,1.36h26.08
			l2.52-1.36v11.08l-5.66-7.48h-6.92v27.76h5.33v2.24h-16.64v-2.24h5.37V26.69h-6.96L430.77,34.16z M473.23,56.69v-2.24h5.37V41.13
			l-10.52-14.44h-3.69v-2.24h16.13v2.24h-5.47l8.32,12.06l8.65-12.06h-5.52v-2.24h12.15v2.24h-3.69L484.5,41.13v13.32h5.37v2.24
			H473.23z M169.44,125.88c-4.57,0-6.87-3.49-6.87-7.94c0-7.59,7.07-16.03,14.96-16.03c4.7,0,6.87,3.54,6.87,7.99
			C184.4,117.49,177.46,125.88,169.44,125.88z M169.26,124.32c5.29-1.92,9.69-10.67,9.69-16.94c0-1.92-0.51-3.29-1.24-3.84
			c-5.24,1.87-9.63,10.62-9.63,16.89C168.08,122.34,168.58,123.71,169.26,124.32z"/>
	</g>
	<g>
		<g>
			<g>
				<path class="st2" d="M68.37,93.26c-3.12,0-5.36,1.53-5.36,1.53c0.38,2.91,1.44,12.43,1.7,15.49c0.27,3.18,0.73,10.06,0.73,12.92
					c0,0,1.08-0.87,2.92-0.87s2.92,0.87,2.92,0.87c0-2.85,0.46-9.74,0.73-12.92c0.26-3.06,1.33-12.57,1.7-15.49
					C73.73,94.79,71.49,93.26,68.37,93.26z"/>
				<path class="st2" d="M68.37,124.89c-1.33,0-1.65,1.23-3.14,1.23c-0.69,0-1.35,0.06-1.35,0.68c0,0.7,0.54,1.11,1.8,2.22
					c0.95,0.83,1.47,2.39,1.44,3.3c-0.18,0.02-0.45-0.02-0.6-0.06c-0.32-0.09-1.11-0.34-1.61-0.95c-0.75-0.92-1.1-2.41-1.99-2.41
					c-0.72,0-1.01,0.71-1.01,1.39c0,1.35-1.03,1.49-1.03,2.71c0,1.44,1.03,1.58,1.03,3.04c0,0.68,0.11,1.32,0.75,1.32
					c0.71,0,1.16-0.74,2.22-2.04c0.6-0.74,1.66-1.07,2.22-1.07c0,0,0.17,1.36-0.26,2.74c-0.4,1.27-1.83,2.83-4.37,2.85
					c-2.97,0.03-4.36-2.8-4.86-3.55c-0.36,1.29-0.99,4.2-3.19,4.68c-1.18,0.26-2.68,0.04-4.06-1.57c-0.71-0.84-0.81-1.48-0.81-1.48
					c0.22-0.28,0.97-0.45,1.7-0.08c1.26,0.64,1.56,1.31,2.24,1c0.48-0.22,0.39-0.75,0.2-1.28c-0.45-1.25,0.39-1.75-0.01-2.72
					c-0.37-0.91-1.37-0.67-1.82-1.76c-0.22-0.53-0.72-0.97-1.27-0.75c-0.69,0.28-0.5,1.42-0.7,2.27c-0.15,0.65-0.47,0.89-0.78,1.13
					c-0.34,0.26-0.81,0.26-0.81,0.26c-0.34-0.53-0.25-1.81,0.25-2.69c0.42-0.76,0.99-1.46,0.59-2.08c-0.36-0.56-1.12-0.36-1.68-0.2
					c-1.11,0.33-1.65,0.1-2.22-0.01c-0.45-0.09-1.05-0.21-1.48,0.29c0,0,1.13,1.44,1.42,1.88c1.39,2.08,2.29,2.97,4.34,7.8
					c1.51,3.57,1.87,7.15,1.87,7.15c1.41-1.08,4.78-2.01,8.17-2.42c4.35-0.52,6.64-0.53,8.81-0.53c2.16,0,4.46,0.01,8.81,0.53
					c3.4,0.41,6.76,1.34,8.17,2.42c0,0,0.36-3.58,1.87-7.15c2.05-4.83,2.95-5.72,4.34-7.8c0.29-0.44,1.42-1.88,1.42-1.88
					c-0.43-0.5-1.03-0.38-1.48-0.29c-0.58,0.11-1.11,0.35-2.22,0.01c-0.56-0.17-1.31-0.36-1.68,0.2c-0.4,0.62,0.17,1.32,0.59,2.08
					c0.5,0.89,0.59,2.16,0.25,2.69c0,0-0.48,0-0.81-0.26c-0.31-0.24-0.63-0.48-0.78-1.13c-0.2-0.84,0-1.98-0.7-2.27
					c-0.56-0.23-1.06,0.22-1.27,0.75c-0.44,1.09-1.44,0.84-1.82,1.76c-0.4,0.98,0.44,1.47-0.01,2.72c-0.19,0.54-0.29,1.06,0.2,1.28
					c0.68,0.32,0.98-0.36,2.24-1c0.73-0.37,1.48-0.19,1.7,0.08c0,0-0.09,0.64-0.81,1.48c-1.38,1.61-2.88,1.83-4.06,1.57
					c-2.2-0.48-2.83-3.39-3.19-4.68c-0.49,0.76-1.89,3.59-4.86,3.55c-2.54-0.03-3.97-1.58-4.37-2.85c-0.43-1.38-0.26-2.74-0.26-2.74
					c0.55,0,1.62,0.33,2.22,1.07c1.06,1.3,1.5,2.04,2.22,2.04c0.63,0,0.75-0.64,0.75-1.32c0-1.46,1.03-1.6,1.03-3.04
					c0-1.22-1.03-1.36-1.03-2.71c0-0.68-0.29-1.39-1.01-1.39c-0.89,0-1.24,1.49-1.99,2.41c-0.5,0.61-1.29,0.86-1.61,0.95
					c-0.15,0.04-0.42,0.07-0.6,0.06c-0.03-0.91,0.5-2.47,1.44-3.3c1.27-1.11,1.8-1.52,1.8-2.22c0-0.62-0.66-0.68-1.35-0.68
					C70.02,126.12,69.7,124.89,68.37,124.89z"/>
				<path class="st2" d="M68.37,166.05c1.83,0,3.31-1.49,3.31-3.31c0-1.84-1.48-3.32-3.31-3.32c-1.85,0-3.32,1.49-3.32,3.32
					C65.05,164.56,66.53,166.05,68.37,166.05z"/>
				<g>
					<path class="st2" d="M70.15,158.29c0.02-0.71,0.26-7.29,0.88-10.48c-0.93-0.56-2.12-0.7-2.65-0.7c-0.55,0-1.69,0.13-2.64,0.7
						c0.62,3.17,0.85,9.7,0.88,10.47c0.54-0.21,1.14-0.33,1.76-0.33C69,157.94,69.6,158.06,70.15,158.29z"/>
				</g>
				<path class="st2" d="M81.37,76.87c-0.33-4.37,2.47-7.14,2.47-7.14c-2.29,0-4.62,2.84-5.3,4.37c-0.6,1.35-1.35,3.32-1.68,4.8
					c-0.65,2.89-2.35,4.16-2.35,4.16s0.63-1.97,0.39-3.57c-0.15-1.03-0.65-2.64-0.09-4.37c0.56-1.73,2.43-3.66,2.9-6.46
					c0.42-2.48-0.47-5.14-3.04-5.65c0,0,1.7,2.53,0.56,5.1c-0.59,1.31-2.39,3-3.07,3.87c-0.52,0.67-0.87,1.23-1.11,1.78
					c0.25-0.84,0.48-1.78,0.4-3.22c-0.13-2.66-2.75-4.22-2.75-6.78c0-1.94,0.68-3.81,1.12-4.97c-0.61,0.46-4.56,2.98-4.22,7.34
					c0.2,2.57,1.38,3.21,1.51,5.46c0.09,1.75-0.37,3.1-0.86,4.6c0.01-0.17,0.03-0.34,0.03-0.51c0-1.44-0.38-2.39-1.51-3.82
					c-0.69-0.88-2.49-2.56-3.07-3.88c-1.15-2.57,0.56-5.1,0.56-5.1c-2.57,0.51-3.46,3.17-3.04,5.65c0.47,2.81,2.35,4.73,2.91,6.46
					c0.56,1.73,0.05,3.35-0.1,4.38c-0.24,1.6,0.39,3.57,0.39,3.57s-1.7-1.28-2.34-4.16c-0.33-1.48-1.08-3.46-1.68-4.8
					c-0.68-1.53-3.02-4.38-5.31-4.38c0,0,2.79,2.78,2.49,7.15c-0.2,2.63,1.01,5.34,2.9,7.22c1.4,1.39,1.68,2.73,1.55,3.91
					c-0.55,0.13-1.21,0.24-1.67,0.36c-1.23,0.3-2.2,0.69-1.98,2.09c0.22,1.4,0.74,1.75,2.12,1.48c2.98-0.58,6.66-1.05,9.87-1.05
					c3.01,0,6.54,0.5,9.86,1.05c1.41,0.23,1.91-0.08,2.14-1.48c0.22-1.4-0.83-1.83-1.98-2.06c-0.5-0.1-1.01-0.23-1.51-0.34
					c-0.09-1.16,0.22-2.46,1.58-3.81C80.35,82.21,81.55,79.49,81.37,76.87z M73.37,85.42c-0.17,0.9-0.33,1.52-0.58,2.11
					c-1.21-0.15-3.12-0.26-4.42-0.26c-1.52,0-3.3,0.04-4.41,0.17c0.33-0.64,0.67-1.15,0.81-1.9c0.14-0.76-0.17-1.06-0.2-2.09
					c-0.02-0.9,0.74-2.03,0.92-3.12c0.23-1.43-0.19-2.47-0.3-2.87c0.43-0.02,1.62,1.17,1.63,3.36c0.01,1.74,0.32,2.83,0.71,3.64
					c0.54,1.1,1.23,1.67,1.57,2.61c0.13-0.1,0.32-0.36,0.51-0.59c0.68-0.85,1.06-2.01,1.12-3.54c0.12-2.73-0.92-3.34-0.79-5.45
					c0.06-0.98,0.51-1.77,0.89-2.18c-0.04,0.28-0.07,0.58-0.07,0.9c0,1.15,0.21,2.25,1.23,3.72C73.26,81.76,73.61,83.74,73.37,85.42
					z"/>
				<g>
					<path class="st2" d="M64.92,153.49c-0.08-1.12-0.18-2.3-0.3-3.36c-2.39-0.28-4.28-0.76-5.99-1.38
						c-2.67,0.43-4.6,1.11-5.33,1.57C56.05,151.94,60.07,153.12,64.92,153.49z"/>
				</g>
				<g>
					<path class="st2" d="M71.83,153.49c0.08-1.12,0.18-2.3,0.3-3.36c2.39-0.28,4.28-0.76,5.99-1.38c2.67,0.43,4.6,1.11,5.33,1.57
						C80.69,151.94,76.67,153.12,71.83,153.49z"/>
				</g>
			</g>
			<g>
				<path class="st2" d="M31.42,88.81c1.54,0,1.85-1.16,1.48-2.58c-0.43-1.71-1.11-2.95-1.48-3.79c-0.37,0.84-1.05,2.08-1.48,3.79
					C29.58,87.65,29.88,88.81,31.42,88.81z"/>
				<path class="st2" d="M16.72,99.49c0.48-1.46-0.53-2.11-2-2.21c-1.76-0.12-3.15,0.15-4.07,0.24c0.69,0.61,1.65,1.65,3.15,2.58
					C15.04,100.89,16.24,100.96,16.72,99.49z"/>
				<path class="st2" d="M22.33,116.78c-1.24-0.9-2.17-0.15-2.72,1.22c-0.66,1.64-0.83,3.04-1.03,3.94c0.79-0.46,2.08-1.06,3.43-2.2
					C23.15,118.8,23.58,117.68,22.33,116.78z"/>
				<path class="st2" d="M40.51,116.78c-1.24,0.9-0.81,2.02,0.32,2.96c1.35,1.13,2.64,1.73,3.43,2.2c-0.19-0.9-0.37-2.3-1.03-3.94
					C42.68,116.63,41.75,115.88,40.51,116.78z"/>
				<path class="st2" d="M48.13,97.28c-1.47,0.1-2.48,0.75-2,2.21c0.48,1.46,1.67,1.4,2.92,0.61c1.49-0.94,2.46-1.97,3.15-2.58
					C51.28,97.43,49.89,97.16,48.13,97.28z"/>
				<path class="st2" d="M43.72,101.31c-1.68,0.31-2.12,2.14-3.74,2.56c-1.24,0.32-2.48-0.43-2.8-1.47
					c-0.35-1.03,0.21-2.36,1.4-2.84c1.56-0.61,2.99,0.6,4.53-0.13c0.5-0.24,1.27-0.82,1.38-2.19c0.19-2.37-1.78-4.59-3.67-5.91
					c-1.84-1.39-4.57-2.58-6.75-1.67c-1.27,0.53-1.59,1.45-1.66,1.99c-0.22,1.7,1.38,2.68,1.27,4.35c-0.08,1.28-1.18,2.22-2.26,2.21
					c-1.09,0.01-2.18-0.93-2.26-2.21c-0.1-1.67,1.5-2.65,1.27-4.35c-0.07-0.55-0.39-1.46-1.66-1.99c-2.19-0.92-4.91,0.27-6.75,1.67
					c-1.89,1.32-3.87,3.54-3.67,5.91c0.11,1.37,0.89,1.96,1.38,2.19c1.54,0.74,2.97-0.48,4.53,0.13c1.19,0.47,1.75,1.8,1.4,2.84
					c-0.33,1.04-1.56,1.79-2.8,1.47c-1.62-0.42-2.06-2.24-3.74-2.56c-0.54-0.1-1.51-0.08-2.41,0.96c-1.55,1.8-1.26,4.76-0.5,6.94
					c0.67,2.21,2.18,4.77,4.49,5.32c1.34,0.32,2.13-0.24,2.51-0.64c1.18-1.24,0.46-2.98,1.53-4.27c0.82-0.99,2.26-1.11,3.13-0.46
					c0.89,0.63,1.22,2.04,0.53,3.12c-0.9,1.41-2.77,1.27-3.59,2.77c-0.26,0.48-0.55,1.41,0.17,2.59c1.23,2.03,4.14,2.67,6.44,2.62
					c2.31,0.04,5.21-0.59,6.44-2.62c0.71-1.18,0.43-2.1,0.17-2.59c-0.82-1.5-2.69-1.36-3.59-2.77c-0.69-1.08-0.35-2.49,0.53-3.12
					c0.87-0.65,2.31-0.53,3.13,0.46c1.07,1.29,0.35,3.03,1.53,4.27c0.38,0.4,1.17,0.96,2.51,0.64c2.31-0.55,3.81-3.11,4.49-5.32
					c0.75-2.18,1.04-5.14-0.5-6.94C45.23,101.23,44.26,101.21,43.72,101.31z M34.06,105.78c-0.43,0.74-1.16,1.29-2.02,1.47
					c-0.07,1.63-0.62,3.58-0.62,3.58s-0.56-1.95-0.62-3.58c-0.87-0.18-1.6-0.73-2.02-1.47c-1.57,0.44-3.6,0.51-3.6,0.51
					s1.68-1.13,3.21-1.7c-0.01-0.11-0.02-0.22-0.02-0.33c0-0.79,0.3-1.51,0.79-2.05c-0.91-1.36-1.6-3.26-1.6-3.26
					s1.59,1.25,2.61,2.53c0.38-0.17,0.8-0.27,1.25-0.27s0.87,0.1,1.25,0.27c1.01-1.28,2.61-2.53,2.61-2.53s-0.69,1.9-1.6,3.26
					c0.49,0.54,0.79,1.26,0.79,2.05c0,0.11-0.01,0.22-0.02,0.33c1.53,0.57,3.21,1.7,3.21,1.7S35.64,106.23,34.06,105.78z"/>
			</g>
			<g>
				<path class="st2" d="M100.42,112.3c-0.77,0.04-1.06,0.49-1.1,0.52c-0.01,0.58-0.32,1.55-0.82,1.85
					c-0.31,0.19-0.62,0.26-0.92,0.24c-1.04-0.05-1.67-0.71-1.85-1.34c-0.8,0.43-0.89,1.55-0.54,2.39c0.66,1.59,2.6,1.71,3.71,1.42
					c1.18-0.31,2.15-1.42,2.48-2.82c0.15-0.63,0.27-1.1,0.34-1.82C101.58,112.69,101.24,112.26,100.42,112.3z"/>
				<path class="st2" d="M107.63,112.76c0.07,0.73,0.19,1.19,0.34,1.82c0.32,1.4,1.3,2.51,2.48,2.82c1.11,0.29,3.05,0.17,3.71-1.42
					c0.35-0.84,0.26-1.96-0.54-2.39c-0.18,0.63-0.81,1.29-1.85,1.34c-0.3,0.02-0.61-0.05-0.92-0.24c-0.49-0.3-0.81-1.27-0.82-1.85
					c-0.04-0.03-0.32-0.48-1.1-0.52C108.11,112.26,107.77,112.69,107.63,112.76z"/>
				<path class="st2" d="M104.68,112.21c-0.59,0-1.22,0.39-1.37,0.49c-0.1,0.73-0.21,1.75-0.44,2.46c-0.33,1.04-0.96,2.58-0.96,3.57
					c0,2.22,2.67,4.64,2.67,5.46c0.01,0.01,0.05,0.03,0.1,0.03s0.08-0.03,0.1-0.03c0-0.82,2.67-3.24,2.67-5.46
					c0-0.99-0.63-2.53-0.96-3.57c-0.23-0.71-0.34-1.73-0.44-2.46C105.89,112.6,105.26,112.21,104.68,112.21"/>
				<path class="st2" d="M104.68,110.25c2.19,0,4.29,0.35,6.46,0.7c0.94,0.15,1.28-0.05,1.44-0.99c0.15-0.94-0.53-1.18-1.34-1.41
					c-0.2-0.06-0.44-0.11-0.7-0.16c0.39-1.11,0.89-3.19,2.5-4.59c0.42-0.37,1.73-1.21,3.18-0.8c0.49,0.14,1.5,0.9,0.7,2.28
					c-0.43,0.74-1.03,1.63-1.06,2.36c-0.02,0.41,0.22,0.9,0.68,1.02c0.14-0.54,0.65-1.36,2.64-2.21c2.36-1.01,3.36-2.65,3.36-4.92
					c0-2.23-1.92-4.89-5.68-4.89c-1.46,0-3.77,0.49-5.52,2.48c-0.59,0.67-1.1,1.52-1.5,2.29c-0.78,1.54-1.63,5.01-1.89,6.6
					c-0.69-0.08-1.3-0.12-1.68-0.13c0.1-1.25,0.39-3.72,1-6.01c0.41-1.53,0.84-2.91,1.41-5.59c0.16-0.78,0.27-1.64,0.27-3.11
					c0-5.24-4.16-8.57-4.16-10.21c-0.01-0.01-0.06-0.04-0.11-0.04s-0.1,0.03-0.11,0.04c0,1.64-4.16,4.98-4.16,10.21
					c0,1.48,0.11,2.33,0.27,3.11c0.57,2.68,1,4.06,1.41,5.59c0.61,2.29,0.9,4.76,1,6.01c-0.37,0.01-0.99,0.06-1.68,0.13
					c-0.26-1.59-1.11-5.06-1.89-6.6c-0.4-0.78-0.9-1.62-1.5-2.29c-1.75-1.99-4.06-2.48-5.52-2.48c-3.77,0-5.68,2.66-5.68,4.89
					c0,2.28,1,3.92,3.36,4.92c1.99,0.85,2.5,1.68,2.64,2.21c0.46-0.12,0.7-0.61,0.68-1.02c-0.03-0.73-0.63-1.62-1.06-2.36
					c-0.8-1.38,0.22-2.15,0.7-2.28c1.45-0.41,2.75,0.43,3.18,0.8c1.6,1.41,2.11,3.48,2.5,4.59c-0.27,0.05-0.51,0.11-0.7,0.16
					c-0.81,0.23-1.48,0.47-1.34,1.41c0.16,0.94,0.5,1.14,1.44,0.99C100.39,110.61,102.48,110.25,104.68,110.25"/>
			</g>
		</g>
		<g>
			<path class="st2" d="M45.96,43.35c2.1,1.66,4.57,2.27,6.17,2.56c1.9,0.34,3.72,0.28,4.09,0.27c0.36-0.01,1.05-0.04,1.05-0.04
				s-0.24,0.27-0.53,0.47c-1.28,0.84-3.22,0.85-5.09,0.5c-0.32-0.06-1.99-0.45-2.43-0.75c0,0,1.23,1.19,3.07,1.93
				c1.77,0.71,3.32,0.94,4.63,0.94c3.23,0,5.52-1.8,5.84-2.37c-0.04,0.04-1.07-0.2-1.86-0.46c-1.06-0.36-1.49-0.73-1.62-1.1
				c0,0,0.62,0.13,1.39,0.27c2.66,0.49,8.33,0.76,10.51,0.7c4.3-0.12,9.48-0.19,13.09-3.44c2.43-2.18,2.37-5.35,2.32-8.02
				c-0.03-1.52-0.05-2.84,0.35-3.72c0.6-1.32,2.32-1.65,3.7-1.87c0.58-0.09,1.25-0.22,1.64-0.46c0.33-0.2,0.42-0.52,0.47-0.91
				c0.03-0.29,0.01-0.77-0.28-1.35c-0.55-1.09-1.65-1.72-3.88-1.72c-1.7,0-3.33,0.68-4.34,1.56c-1.76,1.53-2.83,3.27-3.4,6.3
				c-0.09,0.46-0.14,0.91-0.18,1.42c-0.06,0.75-0.35,2.23-1.32,2.92c-0.41,0.29-0.73,0.36-0.73,0.36s0.08-0.25,0.12-0.38
				c2.19-7.18-5.15-10.85-11.08-14.11c-1.47-0.8-3.59-2.08-4.43-2.66c-5.37-3.72-8.65-7.63-9.82-11.8c-0.65,0.52-0.72,2.36-0.7,3.29
				c0.09,3.15,1.66,5.89,3.6,8.21c3.49,4.18,10.7,8.12,15.27,10.29c0.39,0.19,1.07,0.5,1.07,0.5c0.01,0-0.64,0.48-2.79-0.13
				c-1.42-0.41-3.51-1.27-6.49-3.1c-6.72-4.12-11.49-8.63-12.48-13.98c-0.41,0.4-0.74,1.59-0.79,2.23c-0.34,3.67,1.53,6.46,2.55,7.8
				c3.7,4.85,10.6,8.66,15.36,10.95c0,0-0.84,0.45-3.36-0.39c-1.51-0.5-3.64-1.55-6.55-3.35c-2.96-1.83-6.16-4.54-8.19-8.01
				c-0.56,0.9-0.63,2.02-0.31,3.71c0.69,3.62,3.99,6.19,4.73,6.79c2.16,1.78,5.08,3.21,7.73,4.16c2.53,0.9,5.33,1.48,8.45,1.29
				c0.35-0.02,0.72-0.08,0.72-0.08s-0.29,0.3-0.59,0.51c-3.31,2.43-9.21,4.18-15.38,4.41c-3.05,0.11-6.06-0.13-8.54-0.74
				c-0.53-0.13-1.39-0.34-1.87-0.51C45.07,42.52,45.57,43.05,45.96,43.35z M87.27,26.77c0.09-0.03,0.59-0.2,0.91-0.3
				c0.7-0.21,1.67-0.38,2.28-0.1c0.21,0.1,0.32,0.31,0.29,0.54c-0.02,0.18-0.13,0.37-0.34,0.45c-0.63,0.25-1.53-0.01-2.27-0.23
				c-0.28-0.08-0.71-0.2-0.87-0.23C87.2,26.88,87.19,26.8,87.27,26.77z"/>
			<path class="st2" d="M0,0v92.46c0,44.56,35.11,73.77,68.37,81.09c33.26-7.32,68.37-36.53,68.37-81.09V0H0z M42.26,39.79
				c3.58,1.6,6.92,2.25,10.64,2.36c3.72,0.1,7.88-0.55,11.13-1.97c-0.27-0.1-1.55-0.53-2.19-0.78c-1.76-0.68-3.53-1.44-5.45-2.6
				c-2.93-1.76-5.69-4.27-7-6.41c-0.88-1.44-1.52-2.68-1.91-4.37c-0.68-2.93,0.24-4.89,1.51-5.43c-0.75-1.65-0.94-4.72-0.71-6.19
				c0.28-1.85,1.36-3.27,2.34-3.68C50.53,9.64,51,7.95,51.87,7.08c0.48-0.47,1.05-0.66,1.66-0.61c0.41,0.05,0.68,0.28,0.83,0.69
				c0.36,0.93,0.76,1.84,1.18,2.69c2.12,4.27,6.36,7.56,9.61,9.4c0.65-1.35,1.32-2.5,2.54-3.79c0.84-0.89,2.09-1.73,3.24-2.17
				c1.14-0.43,1.81-0.64,3.11-0.73c0.03,0,0.9,0,0.93,0c0.26-0.17,1.23-0.83,2.07-1.24c0.61-0.3,1.87-0.76,3.04-0.78
				c0.8-0.02,1.56,0.17,2.02,0.77l0.14,0.17l-0.17,0.14c-2.44,1.98-3.86,5.33-3.8,8.94c0.04,2.14,0.52,4.21,1.19,6.24
				c0.22,0.65,0.8,2.63,0.8,2.63c0.05-0.19,0.42-1.22,1.09-2.25c0.84-1.3,2.26-2.34,3.23-2.84c1.17-0.6,2.35-0.91,4.02-0.91
				c2.92,0,4.87,1.39,5.76,3.4c0.42,0.28,0.91,0.44,1.4,0.59c0.75,0.24,1.65,0.56,2.13,1.31c0.03,0.05,0.12,0.21,0.12,0.21
				s-0.09,0.06-0.19,0.12c-0.94,0.54-2.29,0.78-4.05,1.01c-0.19,0.02-0.43,0.05-0.71,0.08c-1.19,0.12-3.21,0.31-4.04,0.96
				c-0.68,0.53-0.87,1.25-0.78,2.58c0.11,1.83,0.44,4.27,0.13,5.81c-0.82,4.11-3.86,6.59-8.17,7.64c-4.42,1.07-9.45,0.7-14.25,0.2
				c0,0-2.09,1.56-3.36,2.24c-1.74,0.92-3.57,1.39-5.74,1.39c-5.92,0-10.66-4.9-12.36-6.58c-0.76-0.76-2.01-2.23-2.59-3.57
				c-0.14-0.33-0.44-1.17-0.4-1.42L42.26,39.79z M133.69,92.46c0,19.73-7.22,37.85-20.89,52.42
				c-11.69,12.46-27.85,21.74-44.43,25.54c-16.58-3.8-32.74-13.08-44.43-25.54C10.28,130.32,3.05,112.19,3.05,92.46l0-31.11
				c9.96-0.88,12.74-8.92,20.57-8.92c8.29,0,10.91,9,22.38,9c11.46,0,14.09-9,22.38-9c8.29,0,10.91,9,22.38,9s14.09-9,22.38-9
				c7.83,0,10.61,8.04,20.57,8.92L133.69,92.46z"/>
			<path class="st2" d="M77.14,26.52c0,0-0.58-1.51-0.71-2.1c-0.2-0.91-0.35-1.82-0.41-2.75c-0.22-3.32,0.69-6.11,2.06-8.11
				c0.34-0.49,1-1.42,1.63-1.93c-2.18,0.55-4.48,2.09-5.63,3.77c-0.65,0.95-1.11,2.09-1.29,3.07c-0.33,1.78-0.05,2.99-0.01,3.02
				c-0.6-0.24-0.83-0.57-1.05-0.86c-0.49-0.64-0.55-1.34-0.48-2.4c0.05-0.72,0.35-1.72,0.85-2.66c0.52-0.97,1.28-1.65,1.28-1.65
				c-1.38,0.21-3.08,0.98-4.39,2.55c-0.29,0.35-0.75,0.9-1.23,2.14c-0.18,0.47-0.42,1.31-0.42,1.84l1.04,0.61
				C71.13,22.57,74.46,24.44,77.14,26.52z"/>
		</g>
	</g>
</g>
</svg>
